<svg xmlns="http://www.w3.org/2000/svg" width="48.018" height="43.998" viewBox="0 0 48.018 43.998">
  <g id="Group_14" data-name="Group 14" transform="translate(-1157 -1310)">
    <rect id="Rectangle_13_copy_11" data-name="Rectangle 13 copy 11" width="35" height="35" rx="10" transform="translate(1157 1310)" fill="#ef4e8a" opacity="0.102"/>
    <path id="Shape_552" data-name="Shape 552" d="M1185.382,1352.979c-1.1-1.2-2.152-2.444-3.354-3.527a120.733,120.733,0,0,0-10.086-7.659,10.994,10.994,0,0,1-4.947-9.222,11.346,11.346,0,0,1,2.2-6.674c2.449-3.42,6.045-4.4,9.868-3.657a11.678,11.678,0,0,1,6.682,4.366c.074.088.141.181.235.3,1.682-1.925,3.417-3.625,5.886-4.387,5.741-1.773,11.01,1.084,12.658,6.907a10.171,10.171,0,0,1-.973,8.475c-.071.115-.155.223-.288.414-.776-1.312-2.022-1.25-3.266-1.222-.769.017-1.54,0-2.4,0,0-.919-.051-1.771.011-2.615.162-2.217-.681-3.461-3.306-3.3-.886.054-1.774.041-2.663.028-.442-.006-.883-.013-1.324-.011a2.32,2.32,0,0,0-2.419,2.386c-.014,1.129,0,2.259,0,3.463-.237.017-.444.044-.652.046-.36,0-.72,0-1.08,0-.572,0-1.145,0-1.717.008a2.254,2.254,0,0,0-2.412,2.425q-.015,2.441,0,4.882a2.2,2.2,0,0,0,2.277,2.36c.832.034,1.666.008,2.5.008h1.083c0,.739-.013,1.408,0,2.076.017.711.086,1.421.084,2.132a1.148,1.148,0,0,1-.272.606c-.3.4-.647.753-.936,1.154-.276.384-.5.8-.779,1.25A5.963,5.963,0,0,0,1185.382,1352.979Zm4.981-1.651c-.79-.006-1.1-.321-1.1-1.13-.007-1.329-.022-2.66,0-3.988.012-.554-.15-.772-.741-.754-1.308.041-2.617.015-3.926.009-.937,0-1.263-.4-1.238-1.323.032-1.264-.006-2.53,0-3.8a7.1,7.1,0,0,1,.071-1.183c.1-.583.556-.724,1.07-.726,1.348-.005,2.7-.024,4.045.009.551.013.734-.177.724-.717-.026-1.329-.016-2.659-.006-3.988.006-.876.3-1.172,1.191-1.178,1.567-.013,3.133-.011,4.7,0,.745,0,1.061.294,1.08,1.035.036,1.384.061,2.768.05,4.153,0,.5.111.711.657.7,1.347-.034,2.7-.014,4.045-.008.805,0,1.168.355,1.172,1.154q.011,2.321,0,4.642c-.005.919-.332,1.23-1.273,1.233-1.328.005-2.659.018-3.986-.006-.466-.009-.617.141-.614.61.009,1.4-.018,2.808-.052,4.212-.02.787-.275,1.032-1.047,1.044-.813.012-1.626,0-2.439,0v0l-1.4,0Q1190.853,1351.332,1190.363,1351.328Z" fill="#ef4e8a"/>
  </g>
</svg>
