<svg xmlns="http://www.w3.org/2000/svg" xmlns:xlink="http://www.w3.org/1999/xlink" width="32" height="29" viewBox="0 0 32 29">
  <defs>
   
  </defs>
  <g id="Mask_Group_8" data-name="Mask Group 8" transform="translate(-20 -40)" clip-path="url(#clip-path)">
    <path id="__TEMP__SVG__" d="M30.605,7.518,25.3,2.187a1.87,1.87,0,0,0-2.639,0L3.858,20.964l-1.717,7.41a1.861,1.861,0,0,0,1.807,2.259,1.934,1.934,0,0,0,.389,0l7.491-1.717L30.605,10.157A1.87,1.87,0,0,0,30.605,7.518ZM10.925,27.289,3.9,28.762l1.6-6.886L19.572,7.861l5.422,5.422ZM26.2,11.973,20.783,6.551l3.145-3.126,5.331,5.422Z" transform="translate(19.376 38.358)" fill="#cea8ff"/>
  </g>
</svg>
