<svg xmlns="http://www.w3.org/2000/svg" width="17.711" height="19.679" viewBox="0 0 17.711 19.679">
  <path id="Fill_1425" data-name="Fill 1425" d="M14.76,19.679H12.3a1.971,1.971,0,0,1-1.969-1.969V12.818H7.379v4.893a1.97,1.97,0,0,1-1.968,1.969H2.952A2.921,2.921,0,0,1,0,16.726V8.408A3.052,3.052,0,0,1,.984,6.232L6.888.778A2.919,2.919,0,0,1,8.882,0a3.082,3.082,0,0,1,1.942.7l5.805,4.991a2.9,2.9,0,0,1,1.083,2.255v8.781A2.921,2.921,0,0,1,14.76,19.679ZM6.4,10.849h4.92a.952.952,0,0,1,.984.984v5.877h2.46a.952.952,0,0,0,.983-.984V7.945a.831.831,0,0,0-.394-.748l-5.805-5a1.023,1.023,0,0,0-.65-.233.831.831,0,0,0-.629.263l-6,5.454a.991.991,0,0,0-.295.728v8.319a.952.952,0,0,0,.984.984h2.46V11.834A.952.952,0,0,1,6.4,10.849Z" fill="#fff"/>
</svg>
