<?xml version="1.0" encoding="iso-8859-1"?>
<!-- Generator: Adobe Illustrator 19.1.0, SVG Export Plug-In . SVG Version: 6.00 Build 0)  -->
<svg version="1.1" id="Capa_1" xmlns="http://www.w3.org/2000/svg" xmlns:xlink="http://www.w3.org/1999/xlink" x="0px" y="0px"
	 viewBox="0 0 421.563 421.563" style="enable-background:new 0 0 421.563 421.563;" xml:space="preserve">
<g>
	<path style="fill:#333333;" d="M391.824,397.883c1.77,1.96,2.46,4.68,1.84,7.25c-0.63,2.57-2.48,4.66-4.95,5.6
		c-14.83,5.6-35.34,10.83-60.22,10.83c-14.93,0-31.44-1.88-49.24-6.7c-23.2-6.27-39.56-15.07-45.14-18.32
		c-7.59,1.25-15.39,1.91-23.33,1.91c-7.95,0-15.74-0.66-23.33-1.91c-5.59,3.25-21.95,12.05-45.14,18.32
		c-13.35,3.61-30.36,6.69-49.51,6.69c-18.44,0-38.86-2.85-59.96-10.82c-2.47-0.94-4.32-3.03-4.94-5.6
		c-0.63-2.57,0.06-5.29,1.83-7.25c18.74-20.75,19.54-73.63,17.32-128.35c-8.16-7.66-13.27-18.54-13.27-30.59
		c0-10.58,3.94-20.26,10.43-27.65c-2.73-55.8-4.17-93.12,13.54-127.59c0.98-1.92,2.04-3.85,3.14-5.74
		c12.73-21.88,36.39-36.03,62.39-37.58c20.14-24.52,49.35-39.14,80.73-40.26c35.71-1.28,70.89,7.44,101.73,25.19
		c26.46,15.23,46,34.88,58.08,58.39c17.7,34.46,16.25,71.78,13.53,127.58c6.48,7.4,10.43,17.07,10.43,27.66
		c0,12.05-5.11,22.93-13.28,30.6C372.294,324.253,373.084,377.133,391.824,397.883z M371.784,238.943c0-11.55-7.57-21.35-18-24.74
		v1.2c0,0.12,0,0.24,0,0.36v39.69c0,2.79-0.09,5.56-0.25,8.31C364.094,260.453,371.784,250.583,371.784,238.943z M361.854,200.143
		c2.32-51.55,1.9-81.55-12.26-109.13c-10.65-20.73-28.09-38.16-51.83-51.83c-28.24-16.26-60.47-24.24-93.18-23.07
		c-27.84,0.99-53.71,14.48-70.97,37c-1.49,1.93-3.77,3.09-6.2,3.13c-22,0.25-42.16,11.66-52.69,29.77c-0.96,1.64-1.88,3.33-2.74,5
		c-14.18,27.59-14.6,57.59-12.28,109.13c2.58-1.07,5.28-1.89,8.08-2.43v-1.47c0-4.08,3.07-7.51,7.13-7.95
		c31.99-3.49,52.3-18.28,63.92-46.56c1.03-2.5,3.26-4.31,5.91-4.82c2.67-0.5,5.4,0.37,7.27,2.33
		c15.74,16.43,74.32,68.53,182.23,68.53c1.17,0,2.36-0.01,3.54-0.02v-18.17c0-4.42,3.58-8,8-8c4.42,0,8,3.58,8,8v8.13
		C356.584,198.253,359.284,199.073,361.854,200.143z M373.074,399.153c-14.27-24.35-16.74-64.83-14.93-120.07
		c-2.12,0.65-4.31,1.14-6.56,1.45c-9.1,51.24-45.59,93.12-93.73,109.95c6.99,3.02,15.84,6.34,26.1,9.08
		C314.894,407.833,344.824,407.683,373.074,399.153z M337.784,255.453v-31.7c-48.58,0.52-93.18-8.85-132.67-27.86
		c-26.26-12.64-44.9-27.06-56.42-37.57c-13.54,25.2-34.91,39.97-64.91,44.91v52.22c0,70.03,56.97,127,127,127
		S337.784,325.483,337.784,255.453z M163.684,390.473c-48.13-16.84-84.6-58.71-93.7-109.94c-2.25-0.31-4.45-0.8-6.57-1.45
		c1.81,55.23-0.66,95.71-14.93,120.06C96.724,413.633,140.534,400.433,163.684,390.473z M68.034,263.763
		c-0.16-2.75-0.25-5.52-0.25-8.31v-41.25c-10.43,3.39-18,13.19-18,24.74C49.784,250.583,57.474,260.453,68.034,263.763z"/>
	<path style="fill:#FFEBFA;" d="M353.784,214.203c10.43,3.39,18,13.19,18,24.74c0,11.64-7.69,21.51-18.25,24.82
		c0.16-2.75,0.25-5.52,0.25-8.31v-39.69c0-0.12,0-0.24,0-0.36V214.203z"/>
	<path style="fill:#BF5B40;" d="M349.594,91.013c14.16,27.58,14.58,57.58,12.26,109.13c-2.57-1.07-5.27-1.89-8.07-2.43v-8.13
		c0-4.42-3.58-8-8-8c-4.42,0-8,3.58-8,8v18.17c-1.18,0.01-2.37,0.02-3.54,0.02c-107.91,0-166.49-52.1-182.23-68.53
		c-1.87-1.96-4.6-2.83-7.27-2.33c-2.65,0.51-4.88,2.32-5.91,4.82c-11.62,28.28-31.93,43.07-63.92,46.56
		c-4.06,0.44-7.13,3.87-7.13,7.95v1.47c-2.8,0.54-5.5,1.36-8.08,2.43c-2.32-51.54-1.9-81.54,12.28-109.13
		c0.86-1.67,1.78-3.36,2.74-5c10.53-18.11,30.69-29.52,52.69-29.77c2.43-0.04,4.71-1.2,6.2-3.13c17.26-22.52,43.13-36.01,70.97-37
		c32.71-1.17,64.94,6.81,93.18,23.07C321.504,52.853,338.944,70.283,349.594,91.013z"/>
	<path style="fill:#BF5B40;" d="M358.144,279.083c-1.81,55.24,0.66,95.72,14.93,120.07c-28.25,8.53-58.18,8.68-89.12,0.41
		c-10.26-2.74-19.11-6.06-26.1-9.08c48.14-16.83,84.63-58.71,93.73-109.95C353.834,280.223,356.024,279.733,358.144,279.083z"/>
	<path style="fill:#FFEBFA;" d="M337.784,223.753v31.7c0,70.03-56.97,127-127,127s-127-56.97-127-127v-52.22
		c30-4.94,51.37-19.71,64.91-44.91c11.52,10.51,30.16,24.93,56.42,37.57C244.604,214.903,289.204,224.273,337.784,223.753z
		 M312.414,248.323c3.13-3.13,3.13-8.19,0-11.31c-6.63-6.64-15.45-10.29-24.83-10.29c-9.38,0-18.2,3.65-24.83,10.28
		c-3.13,3.13-3.13,8.19,0,11.32c3.12,3.12,8.19,3.12,11.31,0c3.61-3.61,8.41-5.6,13.52-5.6c5.11,0,9.91,1.99,13.52,5.6
		c1.56,1.56,3.61,2.34,5.65,2.34C308.804,250.663,310.854,249.883,312.414,248.323z M295.304,295.503c0-9.15-2.68-16.33-7.96-21.35
		c-10.68-10.16-28.8-9.25-51.74-8.1c-7.96,0.4-16.18,0.81-24.82,0.81c-8.63,0-16.86-0.41-24.82-0.81
		c-22.94-1.15-41.06-2.06-51.74,8.1c-5.28,5.02-7.96,12.2-7.96,21.35c0,17.34,9.14,33.47,25.74,45.4
		c15.8,11.37,36.68,17.63,58.78,17.63s42.98-6.26,58.78-17.63C286.164,328.973,295.304,312.843,295.304,295.503z M158.824,248.323
		c3.12-3.13,3.12-8.19,0-11.32c-13.7-13.69-35.98-13.69-49.67,0c-3.12,3.13-3.12,8.19,0,11.32c3.13,3.12,8.19,3.12,11.31,0
		c7.46-7.45,19.59-7.45,27.04,0c1.56,1.56,3.61,2.34,5.66,2.34S157.254,249.883,158.824,248.323z"/>
	<path style="fill:#333333;" d="M312.414,237.013c3.13,3.12,3.13,8.18,0,11.31c-1.56,1.56-3.61,2.34-5.66,2.34
		c-2.04,0-4.09-0.78-5.65-2.34c-3.61-3.61-8.41-5.6-13.52-5.6c-5.11,0-9.91,1.99-13.52,5.6c-3.12,3.12-8.19,3.12-11.31,0
		c-3.13-3.13-3.13-8.19,0-11.32c6.63-6.63,15.45-10.28,24.83-10.28C296.964,226.723,305.784,230.373,312.414,237.013z"/>
	<path style="fill:#333333;" d="M287.344,274.153c5.28,5.02,7.96,12.2,7.96,21.35c0,17.34-9.14,33.47-25.74,45.4
		c-15.8,11.37-36.68,17.63-58.78,17.63s-42.98-6.26-58.78-17.63c-16.6-11.93-25.74-28.06-25.74-45.4c0-9.15,2.68-16.33,7.96-21.35
		c10.68-10.16,28.8-9.25,51.74-8.1c7.96,0.4,16.19,0.81,24.82,0.81c8.64,0,16.86-0.41,24.82-0.81
		C258.544,264.903,276.664,263.993,287.344,274.153z M278.554,302.463c0.49-2.27,0.75-4.6,0.75-6.96c0-6.92-2.24-9.06-2.98-9.76
		c-3.08-2.92-9.32-4.03-17.18-4.29v17.79C266.544,299.453,273.074,300.313,278.554,302.463z M259.144,328.783
		c5.02-3.44,9.26-7.41,12.55-11.78c-3.29-1.08-7.6-1.58-12.55-1.74V328.783z M243.144,336.943v-21.43c-2.21,0.1-4.47,0.22-6.73,0.33
		c-5.46,0.27-11.43,0.57-17.63,0.73v25.63C227.504,341.503,235.734,339.683,243.144,336.943z M243.144,299.503v-17.8
		c-2.22,0.1-4.47,0.22-6.74,0.33c-5.45,0.27-11.42,0.57-17.62,0.73v17.8c5.76-0.15,11.36-0.43,16.82-0.7
		C238.184,299.733,240.694,299.603,243.144,299.503z M202.784,342.203v-25.63c-6.2-0.16-12.17-0.46-17.63-0.73
		c-2.27-0.11-4.52-0.23-6.73-0.33v21.43C185.834,339.683,194.064,341.503,202.784,342.203z M202.784,300.563v-17.8
		c-6.19-0.16-12.17-0.46-17.62-0.73c-2.27-0.11-4.52-0.23-6.74-0.32v17.79c2.45,0.1,4.96,0.23,7.53,0.36
		C191.424,300.133,197.024,300.413,202.784,300.563z M162.424,328.783v-13.52c-4.95,0.16-9.26,0.66-12.55,1.75
		C153.164,321.373,157.404,325.353,162.424,328.783z M162.424,299.243v-17.79c-7.85,0.26-14.1,1.37-17.18,4.29
		c-0.73,0.7-2.98,2.84-2.98,9.76c0,2.36,0.26,4.69,0.75,6.96C148.494,300.313,155.024,299.443,162.424,299.243z"/>
	<path style="fill:#333333;" d="M158.824,237.003c3.12,3.13,3.12,8.19,0,11.32c-1.57,1.56-3.61,2.34-5.66,2.34s-4.1-0.78-5.66-2.34
		c-7.45-7.45-19.58-7.45-27.04,0c-3.12,3.12-8.18,3.12-11.31,0c-3.12-3.13-3.12-8.19,0-11.32
		C122.844,223.313,145.124,223.313,158.824,237.003z"/>
	<path style="fill:#BF5B40;" d="M69.984,280.533c9.1,51.23,45.57,93.1,93.7,109.94c-23.15,9.96-66.96,23.16-115.2,8.67
		c14.27-24.35,16.74-64.83,14.93-120.06C65.534,279.733,67.734,280.223,69.984,280.533z"/>
	<path style="fill:#FFEBFA;" d="M67.784,255.453c0,2.79,0.09,5.56,0.25,8.31c-10.56-3.31-18.25-13.18-18.25-24.82
		c0-11.55,7.57-21.35,18-24.74V255.453z"/>
</g>
<g>
</g>
<g>
</g>
<g>
</g>
<g>
</g>
<g>
</g>
<g>
</g>
<g>
</g>
<g>
</g>
<g>
</g>
<g>
</g>
<g>
</g>
<g>
</g>
<g>
</g>
<g>
</g>
<g>
</g>
</svg>
