<svg xmlns="http://www.w3.org/2000/svg" width="24.06" height="20" viewBox="0 0 24.06 20">
  <path id="Path_1396" data-name="Path 1396" d="M23.516-12.867,20.98-16.914a1.25,1.25,0,0,0-1.059-.586H4.141a1.25,1.25,0,0,0-1.059.586L.547-12.867a3.485,3.485,0,0,0,2.3,5.328,4.062,4.062,0,0,0,.535.035A3.857,3.857,0,0,0,6.262-8.8,3.863,3.863,0,0,0,9.144-7.5,3.857,3.857,0,0,0,12.027-8.8,3.863,3.863,0,0,0,14.91-7.5,3.857,3.857,0,0,0,17.793-8.8,3.87,3.87,0,0,0,20.676-7.5a4.018,4.018,0,0,0,.535-.035A3.481,3.481,0,0,0,23.516-12.867ZM20.684-6.25A4.957,4.957,0,0,1,19.531-6.4v3.9h-15V-6.4a5.174,5.174,0,0,1-1.152.148,5.272,5.272,0,0,1-.7-.047,4.913,4.913,0,0,1-.641-.141V1.25A1.249,1.249,0,0,0,3.285,2.5h17.5a1.249,1.249,0,0,0,1.25-1.25V-6.437a3.99,3.99,0,0,1-.641.141A5.434,5.434,0,0,1,20.684-6.25Z" transform="translate(-0.002 17.5)" fill="#fff"/>
</svg>
