<svg xmlns="http://www.w3.org/2000/svg" width="32.275" height="39" viewBox="0 0 32.275 39">
  <g id="user" transform="translate(-7.434 -6.57)" opacity="0.8">
    <path id="Path_19" data-name="Path 19" d="M15.886,15.407c0,2.58,1.3,5.865,2.83,7.15.41.345.041.243.542.6-3.872,1.318-8.912,3.557-11.194,8.355V44.94H39.079V31.507c-2.282-4.8-7.322-7.036-11.194-8.356,2.738-1.919,3.372-4.588,3.372-7.745-.01-4.367-3.129-8.205-7.686-8.205S15.9,11.038,15.886,15.407Z" transform="translate(0 0)" fill="none" stroke="#000" stroke-linecap="round" stroke-miterlimit="2.3" stroke-width="1.26"/>
    <path id="Path_20" data-name="Path 20" d="M13.536,9.9c.7.063.719-.46,2.625-.348,2.847.168,1.927,1.028,3.869,1.085,1.514-.057,1.449-.538,2.146-.737a8.873,8.873,0,0,0-4.32-2.7,9.615,9.615,0,0,0-4.32,2.7Z" transform="translate(5.725)" fill="red" stroke="#000" stroke-width="1" fill-rule="evenodd"/>
    <path id="Path_21" data-name="Path 21" d="M12.312,28.08V23.04" transform="translate(2.483 16.5)" fill="none" stroke="#000" stroke-width="1.26"/>
    <path id="Path_22" data-name="Path 22" d="M23.364,28.08V23.04" transform="translate(8.941 16.5)" fill="none" stroke="#000" stroke-width="1.26"/>
    <path id="Path_23" data-name="Path 23" d="M13.824,16.56s-.679,2.2,0,2.88c1.9,1.9,6.163,1.9,8.064,0,.679-.679,0-2.88,0-2.88" transform="translate(5.725 9.12)" fill="none" stroke="#000" stroke-width="1.26"/>
  </g>
</svg>
