<svg xmlns="http://www.w3.org/2000/svg" width="20" height="20" viewBox="0 0 20 20">
  <path id="Path_1401" data-name="Path 1401" d="M0-1.668V0C0,1.379,3.359,2.5,7.5,2.5S15,1.379,15,0V-1.668C13.387-.531,10.437,0,7.5,0S1.613-.531,0-1.668ZM12.5-12.5c4.141,0,7.5-1.121,7.5-2.5s-3.359-2.5-7.5-2.5S5-16.379,5-15,8.359-12.5,12.5-12.5ZM0-5.766V-3.75c0,1.379,3.359,2.5,7.5,2.5S15-2.371,15-3.75V-5.766C13.387-4.437,10.434-3.75,7.5-3.75S1.613-4.437,0-5.766Zm16.25.43C18.488-5.77,20-6.574,20-7.5V-9.168A9.592,9.592,0,0,1,16.25-7.82ZM7.5-11.25c-4.141,0-7.5,1.4-7.5,3.125S3.359-5,7.5-5,15-6.4,15-8.125,11.641-11.25,7.5-11.25Zm8.566,2.2C18.41-9.473,20-10.3,20-11.25v-1.668a12.716,12.716,0,0,1-6.277,1.633A4.374,4.374,0,0,1,16.066-9.051Z" transform="translate(0 17.5)" fill="#fff"/>
</svg>
