<svg xmlns="http://www.w3.org/2000/svg" xmlns:xlink="http://www.w3.org/1999/xlink" width="55" height="59" viewBox="0 0 55 59"><defs><clipPath id="a"><rect width="48" height="45" transform="translate(1051 956)" fill="#403cac" stroke="#707070" stroke-width="1"/></clipPath></defs><g transform="translate(-31 -137)"><rect width="35" height="35" rx="10" transform="translate(31 137)" fill="#4141f8" opacity="0.102"/><g transform="translate(-1013 -805)" clip-path="url(#a)"><path d="M34.816,11.332a38.979,38.979,0,0,0,1.338,8.277,39.543,39.543,0,0,1,1.338,8.721,12.741,12.741,0,0,1-2.53,8.1,8.225,8.225,0,0,1-6.838,3.231,9.029,9.029,0,0,0-3.242.6,10.372,10.372,0,0,0-2.635,1.417,17.277,17.277,0,0,0-1.882,1.66,13.275,13.275,0,0,0-1.213,1.394,4.119,4.119,0,0,0-.4.6,6.791,6.791,0,0,0-.4-.6q-.272-.376-1.192-1.372a13.169,13.169,0,0,0-1.924-1.726,11.571,11.571,0,0,0-2.594-1.35,8.91,8.91,0,0,0-3.262-.619,8.229,8.229,0,0,1-6.838-3.231,12.733,12.733,0,0,1-2.529-8.1,39.557,39.557,0,0,1,1.338-8.721,38.995,38.995,0,0,0,1.338-8.277,17.275,17.275,0,0,0-.607-4.958A8.841,8.841,0,0,0,.018,2.833a2.63,2.63,0,0,1,.021-.31A4.855,4.855,0,0,1,.207,1.86,3.235,3.235,0,0,1,.6,1,2.277,2.277,0,0,1,1.4.31,2.6,2.6,0,0,1,2.7,0a3.786,3.786,0,0,0,.46,1.638A8.736,8.736,0,0,0,4.432,3.5,6.393,6.393,0,0,0,6.565,5.047a6.579,6.579,0,0,0,2.823.619q4.183,0,6.107-1.549A5.02,5.02,0,0,0,17.418,0H20.1a5.022,5.022,0,0,0,1.924,4.117q1.924,1.55,6.107,1.549a6.55,6.55,0,0,0,2.823-.619A6.433,6.433,0,0,0,33.082,3.5a8.637,8.637,0,0,0,1.275-1.86A3.814,3.814,0,0,0,34.818,0a2.733,2.733,0,0,1,1.3.288A1.962,1.962,0,0,1,36.909,1a4.58,4.58,0,0,1,.4.841,4.157,4.157,0,0,1,.188.686v.31a8.851,8.851,0,0,0-2.07,3.542,17.275,17.275,0,0,0-.607,4.958Zm-12.84,7.614-3.22-7.614-3.22,7.614L8.048,20.009l5.521,5.754L12.148,34l6.609-4.072L25.366,34l-1.422-8.233,5.521-5.754Z" transform="translate(1056.038 956)" fill="#403cac"/></g></g></svg>