<svg xmlns="http://www.w3.org/2000/svg" width="19.925" height="17.932" viewBox="0 0 19.925 17.932">
  <path id="Fill_219" data-name="Fill 219" d="M15.94,17.932H2.989A2.925,2.925,0,0,1,0,15.082V6.532a2.834,2.834,0,0,1,1.873-2.64.923.923,0,0,1,.259-.139L11.646.2A3.108,3.108,0,0,1,12.731,0a2.981,2.981,0,0,1,2.83,1.929L16.2,3.693a2.917,2.917,0,0,1,2.73,2.839V7.739a1.865,1.865,0,0,1,1,1.644v1.9a1.89,1.89,0,0,1-1,1.645v2.152A2.925,2.925,0,0,1,15.94,17.932ZM2.989,5.586a.973.973,0,0,0-1,.946v8.55a.974.974,0,0,0,1,.947H15.94a.974.974,0,0,0,1-.947v-1.9h-1a2.925,2.925,0,0,1-2.989-2.85A2.925,2.925,0,0,1,15.94,7.48h1V6.532a.973.973,0,0,0-1-.946Zm12.951,3.8a.952.952,0,1,0,0,1.9h1.993v-1.9ZM12.73,1.9a1.054,1.054,0,0,0-.357.062l-4.6,1.715h6.316l-.408-1.137A.993.993,0,0,0,12.73,1.9Z" fill="#fff"/>
</svg>
