<svg xmlns="http://www.w3.org/2000/svg" width="21" height="21" viewBox="0 0 21 21">
  <path id="Fill_408" data-name="Fill 408" d="M10.5,21A10.5,10.5,0,1,1,21,10.5,10.512,10.512,0,0,1,10.5,21ZM9.45,14.7A3.159,3.159,0,0,0,6.3,17.777a8.416,8.416,0,0,0,8.4,0A3.173,3.173,0,0,0,11.55,14.7H9.45ZM10.5,4.2a5.252,5.252,0,0,1,3.612,9.062,5.3,5.3,0,0,1,2.456,3.045,8.4,8.4,0,1,0-12.138,0,5.273,5.273,0,0,1,2.458-3.045A5.251,5.251,0,0,1,10.5,4.2Zm0,2.1A3.15,3.15,0,1,0,13.65,9.45,3.154,3.154,0,0,0,10.5,6.3Z" fill="#fff"/>
</svg>
