<svg xmlns="http://www.w3.org/2000/svg" xmlns:xlink="http://www.w3.org/1999/xlink" width="68" height="51" viewBox="0 0 68 51">
  <defs>
    
  </defs>
  <g id="Group_12" data-name="Group 12" transform="translate(-207 -320)">
    <rect id="Rectangle_13_copy_9" data-name="Rectangle 13 copy 9" width="35" height="35" rx="10" transform="translate(207 320)" fill="#f67621" opacity="0.102"/>
    <g id="Mask_Group_1" data-name="Mask Group 1" transform="translate(35 29.567)" clip-path="url(#clip-path)">
      <path id="__TEMP__SVG__" d="M16.19,38.648a3.866,3.866,0,0,0-1.054-2.732,3.423,3.423,0,0,0-5.087,0,4.069,4.069,0,0,0,0,5.466,3.426,3.426,0,0,0,5.089,0A3.866,3.866,0,0,0,16.19,38.648ZM5.4,23.188H16.19V15.458H11.749a1.128,1.128,0,0,0-.619.272L5.649,21.617a2.308,2.308,0,0,0-.254.665Zm35.984,15.46a3.866,3.866,0,0,0-1.054-2.732,3.424,3.424,0,0,0-5.089,0,4.069,4.069,0,0,0,0,5.464,3.424,3.424,0,0,0,5.087,0,3.854,3.854,0,0,0,1.054-2.732Zm3.6-20.29v-5.8a.975.975,0,0,0-.254-.694.852.852,0,0,0-.646-.272h-6.3V4.828a.975.975,0,0,0-.254-.694.852.852,0,0,0-.646-.272h-5.4a.841.841,0,0,0-.646.272.987.987,0,0,0-.254.694v6.764h-6.3a.842.842,0,0,0-.646.272.987.987,0,0,0-.254.694v5.8a.975.975,0,0,0,.254.694.852.852,0,0,0,.646.272h6.3v6.764a.975.975,0,0,0,.254.694.852.852,0,0,0,.646.272h5.4a.842.842,0,0,0,.646-.272.987.987,0,0,0,.254-.694V19.323h6.3a.841.841,0,0,0,.646-.272.987.987,0,0,0,.254-.694Zm7.2-16.426V36.716a1.928,1.928,0,0,1-.535,1.359,1.673,1.673,0,0,1-1.265.574h-5.4a7.735,7.735,0,0,1-2.109,5.466,6.848,6.848,0,0,1-10.177,0,7.735,7.735,0,0,1-2.109-5.466H19.788a7.735,7.735,0,0,1-2.109,5.466,6.7,6.7,0,0,1-5.089,2.265A6.7,6.7,0,0,1,7.5,44.115a7.735,7.735,0,0,1-2.109-5.466H1.8a1.673,1.673,0,0,1-1.265-.574,1.994,1.994,0,0,1,0-2.718A1.673,1.673,0,0,1,1.8,34.782V22.221a5.011,5.011,0,0,1,.365-1.751,4.627,4.627,0,0,1,.9-1.54l5.567-5.979a4.248,4.248,0,0,1,1.433-.967,4.126,4.126,0,0,1,1.63-.392h4.5V1.93A1.928,1.928,0,0,1,16.724.571,1.673,1.673,0,0,1,17.99,0H50.375A1.673,1.673,0,0,1,51.64.571a1.928,1.928,0,0,1,.535,1.359Z" transform="translate(183.526 295.053)" fill="#a40000"/>
    </g>
  </g>
</svg>
