<svg xmlns="http://www.w3.org/2000/svg" xmlns:xlink="http://www.w3.org/1999/xlink" width="69" height="54" viewBox="0 0 69 54">
  <defs>
   
  </defs>
  <g id="Group_10" data-name="Group 10" transform="translate(-1157 -954)">
    <rect id="Rectangle_13_copy_7" data-name="Rectangle 13 copy 7" width="35" height="35" rx="10" transform="translate(1157 954)" fill="#f3aa00" opacity="0.102"/>
    <g id="Mask_Group_3" data-name="Mask Group 3" transform="translate(-44 -8)" clip-path="url(#clip-path)">
      <path id="__TEMP__SVG__" d="M15.583,49C5.544,43.342,2.9,37.986,4.413,30.671c1.116-5.4,4.768-9.8,5.119-15.186a16.745,16.745,0,0,1,2.387,7.855A38.855,38.855,0,0,0,20.355,0S33.282,7.6,34.13,19.068c1.113-2.364,1.673-6.121.561-8.555C38.029,12.947,57.57,34.557,32.043,49c4.8-9.344,1.239-21.952-7.094-27.776.557,2.5-.419,11.843-4.105,15.945,1.021-6.856-.972-9.756-.972-9.756a22.094,22.094,0,0,1-3.339,7.72c-2.424,3.543-4.1,7.3-.95,13.866Z" transform="translate(1218.5 967)" fill="#ff863e"/>
    </g>
  </g>
</svg>
