<svg xmlns="http://www.w3.org/2000/svg" xmlns:xlink="http://www.w3.org/1999/xlink" width="94" height="94" viewBox="0 0 94 94">
  <defs>
    <filter id="Rectangle_639_copy_6" x="0" y="0" width="94" height="94" filterUnits="userSpaceOnUse">
      <feOffset dx="-2.724" dy="5.346" input="SourceAlpha"/>
      <feGaussianBlur stdDeviation="9" result="blur"/>
      <feFlood flood-color="#7364f8" flood-opacity="0.102"/>
      <feComposite operator="in" in2="blur"/>
      <feComposite in="SourceGraphic"/>
    </filter>
  </defs>
  <g id="Group_12" data-name="Group 12" transform="translate(-1431.276 -1439.346)">
    <g transform="matrix(1, 0, 0, 1, 1431.28, 1439.35)" filter="url(#Rectangle_639_copy_6)">
      <circle id="Rectangle_639_copy_6-2" data-name="Rectangle 639 copy 6" cx="20" cy="20" r="20" transform="translate(29.72 21.65)" fill="#eb1d96" opacity="0.09"/>
    </g>
    <path id="Shape_662" data-name="Shape 662" d="M1485.981,1488l-2.42-1.046c-.62-.268-1.236-.546-1.861-.8a.58.58,0,0,0-.4,0c-1.362.577-2.718,1.169-4.076,1.756-.064.028-.13.051-.223.087v-.271q0-5.647,0-11.294a1.288,1.288,0,0,1,.831-1.345,1.549,1.549,0,0,1,.52-.081q3.16-.008,6.32,0a1.253,1.253,0,0,1,1.324,1.3q.01,5.769,0,11.538C1486,1487.882,1485.989,1487.922,1485.981,1488Z" fill="#eb1d96"/>
  </g>
</svg>
