<svg xmlns="http://www.w3.org/2000/svg" width="207" height="93.638" viewBox="0 0 207 93.638">
  <g id="Group_481" data-name="Group 481" transform="translate(-114.538 -556)">
    <path id="Path_1302" data-name="Path 1302" d="M168.635,704.594h.032a7.387,7.387,0,0,0,5.8-3.544q4.981-7.878,9.9-15.793c1.115-1.8,1.046-3.331-.119-4.323-1.463-1.246-2.932-.82-4.36.131q-4.412,2.938-8.825,5.876c-2.23,1.488-4.5,2.925-6.672,4.492-2.77,2-3.842,5.035-2.91,7.829A7.493,7.493,0,0,0,168.635,704.594Zm-38.505-21.76v.033c-4.021,0-8.042-.028-12.062.011-2.295.022-3.574,1.186-3.529,3.065.043,1.792,1.094,2.669,3.386,2.7q11.519.148,23.038.235a10.831,10.831,0,0,0,2.891-.319,2.621,2.621,0,0,0,2.119-2.643,2.664,2.664,0,0,0-2.154-2.8,10.3,10.3,0,0,0-2.532-.265C137.569,682.819,133.85,682.834,130.13,682.834Zm4.117,29.277v.006c-2.86,0-5.721-.032-8.582.01-2.213.032-3.547,1.144-3.542,2.832.006,1.734,1.294,2.894,3.493,2.913q8.49.072,16.98.006c2.228-.017,3.439-1.15,3.4-2.953-.035-1.731-1.21-2.766-3.353-2.8C139.847,712.074,137.047,712.111,134.247,712.111Zm2.612-8.836v-.038c2.069,0,4.143.083,6.206-.025,1.912-.1,2.923-1.188,2.913-2.839a2.651,2.651,0,0,0-2.775-2.785c-3.952-.1-7.911-.1-11.862.034a2.882,2.882,0,0,0-2.874,2.964c.044,1.541,1.227,2.613,3.1,2.675C133.328,703.321,135.095,703.275,136.86,703.275Z" transform="translate(0 -88.98)" fill="#0d45a9"/>
    <path id="Path_1303" data-name="Path 1303" d="M245.546,646.666c-11.768,4.579-23.3,3.805-34.523-1.9a12.609,12.609,0,0,1-3.264-2.34,4.276,4.276,0,0,1-.612-5.667,4.336,4.336,0,0,1,5.7-1.255,36.676,36.676,0,0,0,9.742,4.134c13.1,2.822,24.232-.6,32.849-10.954a32.278,32.278,0,0,0-2.119-43.214c-12.252-12.348-32.945-12.5-45.3-.326-.261.258-.519.519-.793.76a4.413,4.413,0,0,1-5.843.232,4.178,4.178,0,0,1-.371-5.8,24.408,24.408,0,0,1,5.585-4.978c5.163-3.769,12.329-6.132,18.639-7.2V563s-3.114-.479-4.531-2.179A6.663,6.663,0,0,1,219.367,556h21.166a4.655,4.655,0,0,1-.85,4.25,7.413,7.413,0,0,1-4.93,2.746v5.129a62.2,62.2,0,0,1,9.447,1.958,38.824,38.824,0,0,1,9.849,5.183,2.021,2.021,0,0,0,2.893-.034c1.493-1.258,3.063-2.425,4.587-3.644,1.986-1.587,4.672-1.655,6.177-.142s1.482,3.973-.088,6.021c-1.114,1.451-2.219,2.927-3.465,4.259-1.173,1.255-1.17,2.307-.184,3.7a38.259,38.259,0,0,1,6.718,16.856C273.552,622.394,262.575,640.036,245.546,646.666Z" transform="translate(-61.26)"/>
    <g id="Group_478" data-name="Group 478" transform="translate(214.783 571.13)">
      <path id="Path_1304" data-name="Path 1304" d="M491.74,636.237h-7.113l-11.482-20.3h-.162q.343,5.379.343,7.674v12.631h-5V609.4h7.059l11.464,20.1h.126q-.271-5.232-.271-7.4V609.4h5.037Z" transform="translate(-468.324 -609.396)" fill="#134aac"/>
      <path id="Path_1305" data-name="Path 1305" d="M589.615,636.237h-15.2V609.4h15.2v4.663h-9.6v5.893h8.937v4.663H580.01v6.922h9.6Z" transform="translate(-544.353 -609.396)" fill="#134aac"/>
    </g>
    <g id="Group_479" data-name="Group 479" transform="translate(214.783 602.159)">
      <path id="Path_1306" data-name="Path 1306" d="M489.953,747.237h-5.579V735.652H473.921v11.584h-5.6V720.4h5.6v10.52h10.453V720.4h5.579Z" transform="translate(-468.324 -719.974)" fill="#134aac"/>
      <path id="Path_1307" data-name="Path 1307" d="M589.159,732.712q0,6.665-3.25,10.244t-9.316,3.58q-6.066,0-9.316-3.58t-3.25-10.281q0-6.7,3.259-10.235t9.343-3.534q6.084,0,9.307,3.562T589.159,732.712Zm-19.264,0q0,4.5,1.679,6.774a5.836,5.836,0,0,0,5.019,2.277q6.7,0,6.7-9.051,0-9.069-6.662-9.069a5.876,5.876,0,0,0-5.037,2.285Q569.895,728.214,569.895,732.712Z" transform="translate(-536.91 -718.906)" fill="#134aac"/>
      <path id="Path_1308" data-name="Path 1308" d="M693.055,720.4v17.368a10.145,10.145,0,0,1-1.309,5.214,8.569,8.569,0,0,1-3.782,3.433,13.334,13.334,0,0,1-5.85,1.194q-5.091,0-7.908-2.653a9.495,9.495,0,0,1-2.816-7.261V720.4h5.579v16.432a6.962,6.962,0,0,0,1.228,4.553,5.056,5.056,0,0,0,4.062,1.45,4.945,4.945,0,0,0,3.981-1.46,7,7,0,0,0,1.237-4.581V720.4Z" transform="translate(-613.851 -719.974)" fill="#134aac"/>
      <path id="Path_1309" data-name="Path 1309" d="M776.258,736.938v10.3h-5.6V720.4h7.691q5.38,0,7.962,1.992t2.582,6.049a7.2,7.2,0,0,1-1.282,4.214,8.509,8.509,0,0,1-3.629,2.892q5.958,9.051,7.763,11.694h-6.211l-6.3-10.3Zm0-4.627h1.805a6.814,6.814,0,0,0,3.918-.9,3.231,3.231,0,0,0,1.264-2.827,2.954,2.954,0,0,0-1.291-2.717,7.728,7.728,0,0,0-4-.808h-1.7Z" transform="translate(-684.994 -719.974)" fill="#134aac"/>
    </g>
    <g id="Group_480" data-name="Group 480" transform="translate(214.409 633.328)">
      <path id="Path_1310" data-name="Path 1310" d="M477.542,835.491a6.845,6.845,0,0,1-1.774,5.082,6.95,6.95,0,0,1-5.106,1.758h-3.657V828.907h4.045a6.407,6.407,0,0,1,4.785,1.736A6.617,6.617,0,0,1,477.542,835.491Zm-1.625.055a5.46,5.46,0,0,0-1.3-3.957,5.141,5.141,0,0,0-3.851-1.332h-2.23v10.724h1.869a5.623,5.623,0,0,0,4.126-1.373A5.489,5.489,0,0,0,475.917,835.546Z" transform="translate(-467.005 -828.907)" fill="#4d4d4d"/>
      <path id="Path_1311" data-name="Path 1311" d="M534.993,842.331h-7.359V828.907h7.359v1.387h-5.824v4.325h5.472V836h-5.472v4.94h5.824Z" transform="translate(-510.455 -828.907)" fill="#4d4d4d"/>
      <path id="Path_1312" data-name="Path 1312" d="M576.983,842.331V828.907h1.535v12.01h5.824v1.414Z" transform="translate(-545.821 -828.907)" fill="#4d4d4d"/>
      <path id="Path_1313" data-name="Path 1313" d="M623.91,842.331V828.907h1.535v13.424Z" transform="translate(-579.451 -828.907)" fill="#4d4d4d"/>
      <path id="Path_1314" data-name="Path 1314" d="M658.108,828.907h1.652L655,842.331h-1.517l-4.731-13.424h1.625l3.034,8.686a24.714,24.714,0,0,1,.831,2.911,24.657,24.657,0,0,1,.849-2.966Z" transform="translate(-597.255 -828.907)" fill="#4d4d4d"/>
      <path id="Path_1315" data-name="Path 1315" d="M714.416,842.331h-7.359V828.907h7.359v1.387h-5.824v4.325h5.472V836h-5.472v4.94h5.824Z" transform="translate(-639.038 -828.907)" fill="#4d4d4d"/>
      <path id="Path_1316" data-name="Path 1316" d="M757.94,836.749v5.582h-1.535V828.907h3.621a5.63,5.63,0,0,1,3.589.946,3.457,3.457,0,0,1,1.16,2.847,3.558,3.558,0,0,1-2.655,3.6l3.585,6.032H763.89l-3.2-5.582Zm0-1.34h2.1a3.59,3.59,0,0,0,2.384-.657,2.463,2.463,0,0,0,.759-1.969,2.257,2.257,0,0,0-.772-1.919,4.128,4.128,0,0,0-2.478-.588h-2Z" transform="translate(-674.404 -828.907)" fill="#4d4d4d"/>
      <path id="Path_1317" data-name="Path 1317" d="M808.57,835.62l3.522-6.712h1.661l-4.406,8.218v5.206h-1.553V837.2l-4.4-8.291h1.679Z" transform="translate(-708.08 -828.907)" fill="#4d4d4d"/>
    </g>
  </g>
</svg>
