<svg id="fast-food_1_" data-name="fast-food (1)" xmlns="http://www.w3.org/2000/svg" width="25.509" height="25.509" viewBox="0 0 25.509 25.509">
  <path id="Path_1340" data-name="Path 1340" d="M25.82,162.167a2.243,2.243,0,0,1-1.13-1.946,6.235,6.235,0,0,1,6.228-6.228h2.566L33.6,152H19.063l1.045,17.234a.747.747,0,0,0,.746.7h4.586a3.717,3.717,0,0,1-.749-2.242,2.246,2.246,0,0,1,1.481-2.109,2.979,2.979,0,0,1,0-3.258C25.927,162.273,25.792,162.219,25.82,162.167Zm0,0" transform="translate(-18.113 -144.427)" fill="#ffcb40"/>
  <path id="Path_1341" data-name="Path 1341" d="M8.22,6.079h7.474a.747.747,0,1,0,0-1.495H9.6l2.015-3.089H14.2A.747.747,0,1,0,14.2,0H11.21a.747.747,0,0,0-.626.339L7.816,4.584H.747a.747.747,0,0,0,0,1.495H8.22Zm0,0" fill="#ffcb40"/>
  <path id="Path_1342" data-name="Path 1342" d="M162,226.733a.747.747,0,0,0,.747.747h15.943a.747.747,0,0,0,.747-.747A4.739,4.739,0,0,0,174.7,222h-7.972A4.739,4.739,0,0,0,162,226.733Zm0,0" transform="translate(-153.929 -210.939)" fill="#ffcb40"/>
  <path id="Path_1343" data-name="Path 1343" d="M183.495,362a1.495,1.495,0,1,0,0,2.989H195.95a1.495,1.495,0,0,0,0-2.989Zm0,0" transform="translate(-172.932 -343.964)" fill="#ffcb40"/>
  <path id="Path_1344" data-name="Path 1344" d="M178.691,452H162.747a.747.747,0,0,0-.747.747,2.245,2.245,0,0,0,2.242,2.242H177.2a2.245,2.245,0,0,0,2.242-2.242A.747.747,0,0,0,178.691,452Zm0,0" transform="translate(-153.929 -429.48)" fill="#ffcb40"/>
</svg>
