<svg xmlns="http://www.w3.org/2000/svg" width="31.752" height="44.175" viewBox="0 0 31.752 44.175">
  <g id="location" transform="translate(-6.75 -2.25)">
    <path id="Path_24" data-name="Path 24" d="M20.25,13.5A2.25,2.25,0,1,1,18,11.25,2.25,2.25,0,0,1,20.25,13.5Z" transform="translate(4.626 4.225)" fill="#fb8989"/>
    <path id="Path_25" data-name="Path 25" d="M22.626,2.25C13.872,2.25,6.75,9.019,6.75,17.337c0,3.96,1.816,9.229,5.4,15.657a115.644,115.644,0,0,0,7.938,12.151,3.162,3.162,0,0,0,5.082,0,116.1,116.1,0,0,0,7.938-12.151c3.579-6.426,5.4-11.693,5.4-15.657C38.5,9.019,31.38,2.25,22.626,2.25Zm0,22.088a6.311,6.311,0,1,1,6.35-6.311A6.331,6.331,0,0,1,22.626,24.338Z" fill="#fb8989"/>
  </g>
</svg>
