<svg xmlns="http://www.w3.org/2000/svg" xmlns:xlink="http://www.w3.org/1999/xlink" width="40" height="39" viewBox="0 0 40 39">
  <defs>
    <clipPath id="clip-path">
      <rect id="Rectangle_13" data-name="Rectangle 13" width="40" height="39" transform="translate(39 137)" fill="#88b0ff" stroke="#707070" stroke-width="1"/>
    </clipPath>
  </defs>
  <g id="Mask_Group_12" data-name="Mask Group 12" transform="translate(-39 -137)" clip-path="url(#clip-path)">
    <path id="__TEMP__SVG__" d="M32.68,32.482a7.41,7.41,0,0,1-1.6,4.779,4.78,4.78,0,0,1-3.842,1.993H5.438A4.778,4.778,0,0,1,1.6,37.262,7.418,7.418,0,0,1,0,32.482a36.8,36.8,0,0,1,.217-4.1,22.05,22.05,0,0,1,.8-3.885,12.932,12.932,0,0,1,1.493-3.348,7.156,7.156,0,0,1,2.4-2.275,6.618,6.618,0,0,1,3.435-.881,11.028,11.028,0,0,0,7.991,3.271,11.028,11.028,0,0,0,7.991-3.271,6.623,6.623,0,0,1,3.434.882,7.156,7.156,0,0,1,2.4,2.275A12.932,12.932,0,0,1,31.658,24.5a22.05,22.05,0,0,1,.8,3.885,36.8,36.8,0,0,1,.217,4.1ZM26.144,9.814a9.457,9.457,0,0,1-2.873,6.938,9.446,9.446,0,0,1-6.931,2.875,9.435,9.435,0,0,1-6.931-2.875A9.462,9.462,0,0,1,6.536,9.814,9.462,9.462,0,0,1,9.408,2.875,9.435,9.435,0,0,1,16.34,0a9.446,9.446,0,0,1,6.931,2.875A9.457,9.457,0,0,1,26.144,9.814Z" transform="translate(42.66 137)" fill="#88b0ff"/>
  </g>
</svg>
